HIERARCHY
ROOT SpineBase
{
  OFFSET 0.000000 0.000000 0.000000
  CHANNELS 6 Xposition Yposition Zposition Zrotation Xrotation Yrotation
  JOINT SpineMid
  {
    OFFSET 0.000000 31.600230 0.000000
    CHANNELS 3 Zrotation Xrotation Yrotation
    JOINT SpineShoulder
    {
      OFFSET 0.183549 23.607878 -0.661992
      CHANNELS 3 Zrotation Xrotation Yrotation
      JOINT Neck
      {
        OFFSET 0.034802 7.851167 -0.509836
        CHANNELS 3 Zrotation Xrotation Yrotation
        JOINT Head
        {
          OFFSET 1.452185 11.579684 2.628095
          CHANNELS 3 Zrotation Xrotation Yrotation
          End Site
          {
            OFFSET 0 0 0
          }
        }
      }
      JOINT ShoulderLeft
      {
        OFFSET -11.420373 -1.181723 -9.378993
        CHANNELS 3 Zrotation Xrotation Yrotation
        JOINT ElbowLeft
        {
          OFFSET -4.163625 -24.456313 -3.655920
          CHANNELS 3 Zrotation Xrotation Yrotation
          JOINT WristLeft
          {
            OFFSET -3.092892 -22.876556 -5.490197
            CHANNELS 3 Zrotation Xrotation Yrotation
            JOINT HandLeft
            {
              OFFSET 1.546417 -6.597466 0.201995
              CHANNELS 3 Zrotation Xrotation Yrotation
              JOINT HandTipLeft
              {
                OFFSET -1.116540 -6.709500 -0.737684
                CHANNELS 3 Zrotation Xrotation Yrotation
                End Site
                {
                  OFFSET 0 0 0
                }
              }
              JOINT ThumbLeft
              {
                OFFSET 1.730284 0.952561 -1.859247
                CHANNELS 3 Zrotation Xrotation Yrotation
                End Site
                {
                  OFFSET 0 0 0
                }
              }
            }
          }
        }
      }
      JOINT ShoulderRight
      {
        OFFSET 10.855156 -4.265602 1.449268
        CHANNELS 3 Zrotation Xrotation Yrotation
        JOINT ElbowRight
        {
          OFFSET 3.428855 -23.438668 5.625316
          CHANNELS 3 Zrotation Xrotation Yrotation
          JOINT WristRight
          {
            OFFSET 6.467263 -24.094767 -0.378810
            CHANNELS 3 Zrotation Xrotation Yrotation
            JOINT HandRight
            {
              OFFSET 0.299450 -4.099276 -0.268317
              CHANNELS 3 Zrotation Xrotation Yrotation
              JOINT HandTipRight
              {
                OFFSET -0.547144 -5.695248 -0.045788
                CHANNELS 3 Zrotation Xrotation Yrotation
                End Site
                {
                  OFFSET 0 0 0
                }
              }
              JOINT ThumbRight
              {
                OFFSET 1.833254 0.290710 -2.928575
                CHANNELS 3 Zrotation Xrotation Yrotation
                End Site
                {
                  OFFSET 0 0 0
                }
              }
            }
          }
        }
      }
    }
  }
  JOINT HipLeft
  {
    OFFSET -5.980116 1.651487 -5.150640
    CHANNELS 3 Zrotation Xrotation Yrotation
    JOINT KneeLeft
    {
      OFFSET -9.551273 -20.744247 -10.100380
      CHANNELS 3 Zrotation Xrotation Yrotation
      JOINT AnkleLeft
      {
        OFFSET -6.754347 -24.661433 6.533003
        CHANNELS 3 Zrotation Xrotation Yrotation
        JOINT FootLeft
        {
          OFFSET -7.742761 -2.218910 -8.754345
          CHANNELS 3 Zrotation Xrotation Yrotation
          End Site
          {
            OFFSET 0 0 0
          }
        }
      }
    }
  }
  JOINT HipRight
  {
    OFFSET 5.345955 0.743517 -1.478279
    CHANNELS 3 Zrotation Xrotation Yrotation
    JOINT KneeRight
    {
      OFFSET -5.697313 -22.309612 -7.127495
      CHANNELS 3 Zrotation Xrotation Yrotation
      JOINT AnkleRight
      {
        OFFSET 2.122107 -26.553628 4.906181
        CHANNELS 3 Zrotation Xrotation Yrotation
        JOINT FootRight
        {
          OFFSET 8.424632 2.291086 3.241385
          CHANNELS 3 Zrotation Xrotation Yrotation
          End Site
          {
            OFFSET 0 0 0
          }
        }
      }
    }
  }
}
MOTION
Frames: 10
Frame Time: 0.033333
33.656260 57.813688 375.645517 -6.339944 -0.689456 -17.021085 1.248733 -0.021184 16.818563 0.006519 -1.233675 -0.243109 0.844807 0.860892 1.494917 0.000000 0.000000 0.000000 -20.539293 6.776934 5.189101 70.898381 1.009540 -12.480220 -0.971427 9.939864 14.504354 29.377640 -5.139387 -10.860736 0.000000 0.000000 0.000000 0.000000 0.000000 0.000000 5.301603 -0.912584 -0.219130 -15.013467 3.652037 1.757590 -19.231429 -6.457892 -0.675527 49.820104 -3.014452 -3.104719 0.000000 0.000000 0.000000 0.000000 0.000000 0.000000 21.238400 -8.301663 19.028325 -12.792769 27.500488 -3.239793 3.295013 -8.789836 -12.237357 0.000000 0.000000 0.000000 12.241531 1.956072 15.282779 4.284946 5.137834 2.900457 -3.208619 -13.313958 42.804605 0.000000 0.000000 0.000000
33.504498 58.083284 375.804824 -6.506953 -1.354500 -17.442843 1.645751 -0.112706 17.191157 0.104595 -1.261353 -0.232528 -0.934673 4.145661 1.720205 0.000000 0.000000 0.000000 -25.121028 10.757411 6.798054 85.535763 2.485285 -13.637628 1.963099 20.670531 16.029133 28.706054 -14.338957 -4.908267 0.000000 0.000000 0.000000 0.000000 0.000000 0.000000 4.798503 -0.207582 -0.351186 -14.781492 3.966333 1.936401 -16.207204 -15.650438 -4.082895 44.245714 8.752080 -7.321577 0.000000 0.000000 0.000000 0.000000 0.000000 0.000000 21.847372 -7.769346 19.181821 -13.985870 28.056610 -3.001693 5.684047 -6.998925 -23.945664 0.000000 0.000000 0.000000 14.210990 -0.375488 16.249432 3.722964 10.605142 1.920317 5.596862 -17.383432 68.286385 0.000000 0.000000 0.000000
33.573773 57.911601 376.098982 -5.784119 -2.387261 -16.784296 1.899835 -0.487668 16.497181 -0.362149 -0.764934 -0.201350 -6.698341 9.181070 3.232725 0.000000 0.000000 0.000000 -28.820146 16.124555 8.610761 101.189722 5.732954 -15.147448 2.551488 27.270865 18.067158 23.612831 -21.031061 -0.131044 0.000000 0.000000 0.000000 0.000000 0.000000 0.000000 4.177500 0.484419 -0.485003 -14.556782 3.660854 1.859301 -18.655886 -20.555059 -6.047210 39.483886 31.522829 -10.490976 0.000000 0.000000 0.000000 0.000000 0.000000 0.000000 20.047282 -6.803115 18.152701 -14.520347 26.879983 -2.842438 5.476074 -6.778392 -18.447972 0.000000 0.000000 0.000000 12.897239 -0.183510 15.709907 4.979167 10.949151 1.658825 10.109730 -16.486460 75.201522 0.000000 0.000000 0.000000
33.879587 57.643717 376.390525 -5.317527 -3.187453 -15.519727 1.552043 -0.683940 15.215777 -0.475651 -0.351728 -0.186537 -9.181588 11.314915 4.119506 0.000000 0.000000 0.000000 -29.438995 22.880872 9.739328 113.865165 11.504837 -17.694326 -1.578776 31.719048 20.783876 29.687560 -26.988623 16.735482 0.000000 0.000000 0.000000 0.000000 0.000000 0.000000 4.008544 0.672348 -0.573797 -14.357581 3.474521 1.820912 -25.825060 -34.011975 -13.498848 44.728073 60.800425 -18.458401 0.000000 0.000000 0.000000 0.000000 0.000000 0.000000 17.743100 -5.937932 16.769533 -13.448402 26.395329 -3.414795 6.409915 -8.349108 -17.157668 0.000000 0.000000 0.000000 8.843721 3.110088 14.241047 9.043038 4.208056 2.530176 8.192976 -13.660173 77.914710 0.000000 0.000000 0.000000
34.311450 57.320950 376.656175 -5.152954 -3.787683 -14.352124 1.107461 -0.901778 14.028734 -0.481898 -0.033290 -0.186062 -9.421265 12.884338 4.370548 0.000000 0.000000 0.000000 -28.948506 30.207202 10.611848 125.638516 18.653336 -22.779971 -3.926767 31.075515 26.994977 40.440796 -26.354723 56.704013 0.000000 0.000000 0.000000 0.000000 0.000000 0.000000 4.194543 0.816008 -0.633501 -14.214837 3.435202 1.827874 -26.580992 -40.107727 -16.827622 52.110382 80.111921 -29.067818 0.000000 0.000000 0.000000 0.000000 0.000000 0.000000 15.015849 -4.844686 15.697734 -10.134059 25.518865 -4.443213 9.316372 -14.568878 -14.417168 0.000000 0.000000 0.000000 5.446720 4.079881 13.833823 15.532740 1.480920 2.781809 -9.305132 -18.439238 87.880234 0.000000 0.000000 0.000000
34.509373 56.651169 376.808380 -5.541312 -4.106110 -13.344113 0.824681 -1.035421 12.976756 -0.344151 0.196775 -0.198426 -8.177634 13.598138 4.132718 0.000000 0.000000 0.000000 -29.756507 38.308576 12.246810 135.394932 27.469396 -29.664452 0.899215 31.659579 38.636175 29.386371 -22.962998 76.662467 0.000000 0.000000 0.000000 0.000000 0.000000 0.000000 4.710727 0.825186 -0.651145 -14.182108 3.572228 1.886534 -29.238361 -47.733386 -22.256715 -173.554086 80.361341 -164.915778 0.000000 0.000000 0.000000 0.000000 0.000000 0.000000 14.810166 -3.884641 14.158135 -11.054933 24.539106 -4.114445 11.453469 -13.726554 -23.018196 0.000000 0.000000 0.000000 2.855730 4.543582 13.711540 22.235356 -1.082738 3.176342 -29.960976 -23.552098 88.051051 0.000000 0.000000 0.000000
34.736670 56.471437 376.846261 -6.215258 -4.190029 -12.637261 0.539632 -1.024083 12.218766 -0.112300 0.374766 -0.218801 -5.913417 13.590774 3.529314 0.000000 0.000000 0.000000 -26.536599 48.092611 11.929694 143.831387 34.367463 -35.580861 30.551483 32.708725 89.704679 -12.628068 1.014370 83.861075 0.000000 0.000000 0.000000 0.000000 0.000000 0.000000 5.340149 0.523969 -0.663368 -14.112070 3.580155 1.905446 -16.533573 -40.425646 -13.395837 -178.172461 83.278118 -165.855043 0.000000 0.000000 0.000000 0.000000 0.000000 0.000000 16.104104 -3.276545 12.650668 -14.720017 22.769210 -2.961586 13.969945 -12.448360 -23.130347 0.000000 0.000000 0.000000 0.064964 5.331384 13.963746 27.888966 -2.735154 3.625626 -71.759060 -27.133657 68.700767 0.000000 0.000000 0.000000
35.014760 56.947050 376.710511 -7.224218 -3.932014 -10.779192 0.006595 -1.003805 10.305850 -0.159578 0.421143 -0.266166 0.251357 12.079897 1.873840 0.000000 0.000000 0.000000 -18.204475 55.675463 8.221405 148.171665 38.825662 -41.889402 50.452635 63.878258 -81.299339 47.049651 -13.614661 2.245582 0.000000 0.000000 0.000000 0.000000 0.000000 0.000000 6.809639 0.012001 -0.635023 -14.042872 3.571598 1.917446 -6.316166 -33.069199 -7.736255 178.867633 84.437275 -168.856359 0.000000 0.000000 0.000000 0.000000 0.000000 0.000000 17.621978 -4.414257 10.923351 -16.638516 22.292733 -2.534313 9.470672 -4.332499 -19.730790 0.000000 0.000000 0.000000 0.124620 4.535262 12.616158 30.802431 -3.356137 3.439062 -80.371950 -27.848247 68.154136 0.000000 0.000000 0.000000
35.211367 56.886920 377.011297 -8.371000 -3.558733 -10.624006 0.094281 -0.780827 10.106258 0.486492 0.249298 -0.295179 2.305152 9.649573 1.428265 0.000000 0.000000 0.000000 -6.652894 61.398616 0.599043 149.657890 42.725191 -53.375842 63.202697 63.547890 -68.744320 29.752601 -29.716718 18.127604 0.000000 0.000000 0.000000 0.000000 0.000000 0.000000 7.120980 -0.426552 -0.621735 -13.980910 3.548205 1.921282 9.167095 -25.951960 -3.053784 -174.221846 82.132686 171.527968 0.000000 0.000000 0.000000 0.000000 0.000000 0.000000 18.754233 -4.862172 10.934424 -16.808350 21.004396 -2.314063 -2.473793 9.524751 -11.614683 0.000000 0.000000 0.000000 2.211514 4.477241 12.062778 27.453834 -1.035525 2.834425 -82.708677 -20.422648 54.926068 0.000000 0.000000 0.000000
35.092266 56.565915 376.909129 -9.362577 -3.506893 -9.894802 0.218903 -0.446183 9.337743 1.032700 -0.012255 -0.322796 1.999512 11.506754 1.477249 0.000000 0.000000 0.000000 15.810093 66.754517 -16.525383 141.603736 51.140634 -79.974090 37.997944 80.337614 -37.847357 19.825783 -25.939553 36.403784 0.000000 0.000000 0.000000 0.000000 0.000000 0.000000 7.346342 -0.537570 -0.618778 -14.158637 -0.260066 0.374251 10.271627 -19.943056 -1.774553 118.607700 76.640098 -113.526249 0.000000 0.000000 0.000000 0.000000 0.000000 0.000000 20.846601 -5.333421 9.847515 -18.894081 19.533916 -1.330538 -9.879549 21.279365 -10.141895 0.000000 0.000000 0.000000 8.610387 2.883762 9.892503 16.042275 2.590745 1.622770 -47.038642 -19.174150 57.389581 0.000000 0.000000 0.000000
